<?xml version="1.0" encoding="UTF-8" ?>
<!DOCTYPE svg PUBLIC "-//W3C//DTD SVG 1.1//EN" "http://www.w3.org/Graphics/SVG/1.1/DTD/svg11.dtd">
<svg width="68pt" height="68pt" viewBox="0 0 68 68" version="1.1" xmlns="http://www.w3.org/2000/svg">
<g id="#988463cc">
<path fill="#988463" opacity="0.80" d=" M 31.88 0.00 L 36.12 0.00 C 44.05 0.62 51.79 3.88 57.51 9.47 C 63.60 15.21 67.22 23.27 68.00 31.57 L 68.00 35.96 C 67.34 45.38 62.79 54.50 55.39 60.41 C 50.00 64.86 43.22 67.38 36.29 68.00 L 32.00 68.00 C 15.19 67.25 0.65 52.61 0.00 35.80 L 0.00 32.06 C 0.59 23.32 4.54 14.86 11.02 8.96 C 16.69 3.69 24.19 0.61 31.88 0.00 M 27.42 22.53 C 25.89 22.84 26.10 24.75 25.99 25.91 C 26.03 31.97 25.92 38.03 26.03 44.08 C 25.85 45.68 26.99 47.64 28.84 46.90 C 34.09 44.29 38.92 40.90 44.04 38.04 C 45.68 37.06 48.36 35.56 46.89 33.31 C 42.68 29.99 37.73 27.76 33.27 24.78 C 31.44 23.85 29.61 22.14 27.42 22.53 Z" />
</g>
<g id="#ffffffff">
<path fill="#ffffff" opacity="1.00" d=" M 27.42 22.53 C 29.61 22.14 31.44 23.85 33.27 24.78 C 37.73 27.76 42.68 29.99 46.89 33.31 C 48.36 35.56 45.68 37.06 44.04 38.04 C 38.92 40.90 34.09 44.29 28.84 46.90 C 26.99 47.64 25.85 45.68 26.03 44.08 C 25.92 38.03 26.03 31.97 25.99 25.91 C 26.10 24.75 25.89 22.84 27.42 22.53 Z" />
</g>
</svg>
